<?xml version="1.0" encoding="UTF-8"?>
<svg id="Layer_2" data-name="Layer 2" xmlns="http://www.w3.org/2000/svg" viewBox="0 0 430.64 361.46">
  <defs>
    <style>
      .cls-1 {
        fill: #6db33f;
      }
    </style>
  </defs>
  <g id="Logo">
    <g>
      <g>
        <path class="cls-1" d="M216.49,218.39h-108.97l16.56-39.42c-5.27.88-10.55,2.2-15.89,4.27-50.57,19.32-51.35,78.05-25.51,94.69l1.87-4.44h33.9c11.81-2.91,24.72-6.45,34.43-10.02,22.43-8.29,46.36-24.61,63.61-45.08Z"/>
        <path class="cls-1" d="M77.69,287.13c-2.94,0-5.82,1.25-7.77,3.75-3.41,4.38-2.97,10.67,1.3,14.16l7.54-17.85c-.36-.04-.72-.06-1.07-.06Z"/>
        <path class="cls-1" d="M332.83,318.49l-56.66-130.74c4.23,37.28-1.79,66.33-18.11,87.99-1.31,1.74-2.75,3.41-4.29,5.02l24.8,58.96c5.38,13.14,15.15,21.74,29.32,21.74,16.13,0,28.35-13.14,28.35-29.83,0-4.04-.98-8.59-3.42-13.14Z"/>
        <path class="cls-1" d="M63.42,315.47c-10-7.77-11.68-22.39-3.76-32.57,2.06-2.65,4.65-4.74,7.54-6.23-11.04-8.08-15.1-19-14.22-38.27.64-13.83,5.15-27.18,13.07-38.61,8.86-12.78,21.82-22.71,37.44-28.67,9.11-3.52,17.88-5.15,26.43-6.04l37.71-89.75,31.81,75.71c12.58-6.95,23.81-16.42,31.03-26.69,3.4-4.84,8.9-7.77,14.78-7.91l-39.51-91.16c-6.84-15.67-18.57-25.28-35.68-25.28h-2.93c-17.11,0-29.32,9.61-36.17,25.28L3.91,318.49c-2.44,5.06-3.91,9.6-3.91,14.15,0,16.18,12.22,28.82,27.86,28.82,12.71,0,22.97-7.08,27.86-19.72l10.36-24.51c-.92-.53-1.81-1.11-2.65-1.77Z"/>
        <path class="cls-1" d="M250.94,133.29c-.77-2.51-2.99-3.86-5.24-3.86-1.71,0-3.43.77-4.58,2.4-9.02,12.84-22.36,23.63-36.61,31.26l19.26,45.84c.08-.12.17-.24.26-.36.47-.69,1.13-.98,1.77-.98,1.46,0,2.87,1.48,2.04,3.18-.58,1.18-1.19,2.36-1.81,3.53l1.72,4.1h-3.99c-13.59,23.45-35.18,43.68-56.91,55.1h75.76c1.86-1.74,3.58-3.59,5.08-5.58,27.41-36.4,15.97-93.25,3.27-134.63Z"/>
      </g>
      <g>
        <path class="cls-1" d="M119.43,297.36c5.89.2,12.98.38,20.78.38,36.25,0,88.03-4.02,107.46-29.82,27.41-36.4,15.97-93.25,3.27-134.63-.77-2.51-2.99-3.86-5.24-3.86-1.71,0-3.43.77-4.58,2.4-14.61,20.78-40.52,36.21-63.31,41.54-24.93,5.92-46.66.99-69.62,9.88-52.34,20-51.35,82.21-22.71,96.28l1.73.99s42.22-8.39,65.67-17.03c25.92-9.58,53.84-29.88,71.15-54.91.47-.69,1.13-.98,1.77-.98,1.46,0,2.87,1.48,2.04,3.18-13.26,27.06-37.69,50.83-62.12,63.33-10.67,5.46-32.16,12.91-47.06,17.81-2.97.98-2.35,5.35.77,5.46Z"/>
        <path class="cls-1" d="M85.72,303.72c-1.94,2.5-4.83,3.75-7.77,3.75-2.29,0-4.61-.76-6.55-2.27-4.44-3.46-4.94-9.87-1.48-14.32,1.94-2.5,4.83-3.75,7.77-3.75,2.29,0,4.61.76,6.55,2.27,4.2,3.46,4.94,9.87,1.48,14.32Z"/>
      </g>
      <g>
        <path class="cls-1" d="M370.43,118.43c0-16.72,12.82-30.1,29.54-30.1s30.1,13.38,30.1,30.1v211.27c0,16.72-13.38,29.54-30.1,29.54s-29.54-12.82-29.54-29.54V118.43Z"/>
        <path class="cls-1" d="M430.64,37.86c0,16.72-13.38,30.1-30.1,30.1s-30.1-13.38-30.1-30.1,13.38-30.1,30.1-30.1c16.17-.56,30.1,12.82,30.1,30.1Z"/>
      </g>
    </g>
  </g>
</svg>