<?xml version="1.0" encoding="UTF-8"?>
<svg version="1.1" xmlns="http://www.w3.org/2000/svg" width="512" height="512">
<path d="M0 0 C1.21797935 -0.00397441 2.43595869 -0.00794881 3.6908465 -0.01204365 C7.03649339 -0.0199452 10.38161927 -0.01456694 13.7272228 -0.00329316 C17.34898241 0.0056104 20.97070887 -0.00291235 24.59246826 -0.00915527 C31.67389268 -0.01860998 38.75521469 -0.01207253 45.83663147 0.00010767 C54.09522945 0.01377941 62.35380348 0.01208522 70.6124099 0.00997434 C85.35552421 0.00678925 100.09859011 0.01842408 114.84169006 0.03804016 C129.12458267 0.05703875 143.40741854 0.06412799 157.69032288 0.05854797 C173.26831256 0.05247994 188.84627734 0.05268627 204.42426497 0.06403381 C206.08778067 0.06524101 207.75129638 0.06644699 209.41481209 0.06765175 C210.64231571 0.06855706 210.64231571 0.06855706 211.89461739 0.06948065 C217.64144761 0.07334812 223.38826852 0.07297072 229.13509941 0.0710659 C236.14623082 0.06893613 243.15731275 0.07422683 250.16843026 0.08867946 C253.74069114 0.09588611 257.31288021 0.10003265 260.88514709 0.0954361 C264.76861249 0.09056094 268.65194919 0.10134347 272.53540039 0.11352539 C274.20557572 0.10785641 274.20557572 0.10785641 275.90949196 0.10207289 C287.27808339 0.16482881 298.01492366 1.40530148 308.33119202 6.3742218 C309.1909967 6.78414368 310.05080139 7.19406555 310.93666077 7.6164093 C324.04786031 14.31390517 334.77559108 24.27881055 345.33119202 34.3742218 C346.00923889 35.01101868 346.68728577 35.64781555 347.38587952 36.3039093 C352.51991548 41.24867205 356.90498979 46.79967811 361.33119202 52.3742218 C362.12654358 53.35262024 362.92189514 54.33101868 363.74134827 55.33906555 C378.34197608 73.68819052 391.66353741 94.58411584 391.59861755 118.58688354 C391.60314867 119.81621941 391.60767978 121.04555528 391.6123482 122.31214374 C391.62279921 125.71264529 391.62432133 129.1129349 391.62195945 132.51343739 C391.6215505 136.18575173 391.63259807 139.85803479 391.64207458 143.53033447 C391.65867032 150.72170225 391.66418354 157.91303725 391.66529934 165.10442258 C391.66625075 170.95368287 391.67036571 176.80293238 391.67670059 182.65218925 C391.69431124 199.25185199 391.70354006 215.85148889 391.70203964 232.45116103 C391.70195973 233.34559775 391.70187982 234.24003446 391.70179749 235.16157532 C391.70171572 236.05711012 391.70163396 236.95264493 391.70154972 237.87531715 C391.70073749 252.37634428 391.71985991 266.87726738 391.74807422 281.37826443 C391.7768449 296.28342461 391.79061213 311.18853413 391.78888667 326.09372276 C391.78822408 334.45545624 391.79365842 342.81708074 391.81524277 351.17878914 C391.83351 358.30093171 391.83775685 365.42291592 391.82422392 372.54507185 C391.81772128 376.17421829 391.81747793 379.80306144 391.83493042 383.4321785 C391.85371491 387.37914857 391.84103561 391.32568255 391.82566833 395.27267456 C391.83595546 396.40218633 391.84624259 397.53169809 391.85684144 398.69543749 C391.70425272 416.53877917 384.58471621 432.13676701 372.15541077 444.71406555 C358.85070117 457.24588745 342.79367484 462.85840916 324.70671082 462.76190186 C323.48141879 462.76728739 322.25612676 462.77267293 320.99370468 462.77822167 C317.62300998 462.78998159 314.25281481 462.78846409 310.88214087 462.78105485 C307.23513022 462.77629992 303.58817116 462.78885348 299.94117737 462.79907227 C292.80815914 462.81622039 285.67522917 462.81710857 278.54219569 462.81185936 C272.74116842 462.80780892 266.94016712 462.80927158 261.13914108 462.81460762 C259.8980942 462.81573025 259.8980942 462.81573025 258.63197567 462.81687557 C256.95088705 462.81840713 255.26979843 462.81994548 253.58870982 462.82149053 C237.84315092 462.83520119 222.09764178 462.82978802 206.35208403 462.81830532 C191.96702831 462.80837482 177.58210125 462.82131298 163.19706537 462.84523951 C148.40364864 462.86965871 133.61029178 462.87923144 118.81685531 462.87258679 C110.52061272 462.86910078 102.22446902 462.87128564 93.92824173 462.88883781 C86.86581304 462.90359514 79.8035529 462.90414933 72.74112739 462.8867669 C69.14246136 462.87828336 65.54409597 462.87604183 61.94544601 462.89141846 C58.03335882 462.90792653 54.12173015 462.89305249 50.2096405 462.87542725 C49.08772627 462.88503225 47.96581204 462.89463726 46.8099004 462.90453333 C21.58874119 462.67192037 -2.35837273 445.4069454 -20.66880798 429.3742218 C-21.81929626 428.38808899 -21.81929626 428.38808899 -22.99302673 427.3820343 C-43.08630964 409.77965423 -66.30518598 387.58205213 -68.66880798 359.3742218 C-68.8134625 355.23773486 -68.81664251 351.10410358 -68.815979 346.96537781 C-68.81965569 345.72702041 -68.82333238 344.48866302 -68.82712048 343.21277964 C-68.83620253 339.79179119 -68.84084709 336.37085052 -68.84350979 332.94985461 C-68.84743138 329.25370724 -68.85700812 325.55757353 -68.86572266 321.86143494 C-68.8854317 312.94508923 -68.89554477 304.02874247 -68.90445045 295.11238045 C-68.90884121 290.90725725 -68.91420585 286.7021353 -68.91943932 282.49701309 C-68.93644365 268.50884704 -68.9509373 254.52068174 -68.95818806 240.53250694 C-68.96009774 236.90731683 -68.96201811 233.28212673 -68.963974 229.65693665 C-68.96469961 228.30551085 -68.96469961 228.30551085 -68.96543988 226.92678352 C-68.97373849 212.33529402 -68.99907611 197.74388654 -69.03155468 183.15243284 C-69.06466926 168.15232573 -69.08264066 153.15226026 -69.0858323 138.15211642 C-69.08799298 129.7378528 -69.09667713 121.32370892 -69.12229347 112.90948105 C-69.14406042 105.74345384 -69.15202142 98.57757549 -69.14232669 91.41151898 C-69.13779969 87.76008209 -69.13957407 84.10895195 -69.15908813 80.45755768 C-69.18012566 76.4865693 -69.16967803 72.51599718 -69.15655518 68.54496765 C-69.17300904 66.84005034 -69.17300904 66.84005034 -69.18979532 65.10069025 C-69.06302036 49.11669132 -62.92395167 31.89145278 -51.69224548 20.2023468 C-36.66523314 6.62581828 -20.2157079 -0.13361919 0 0 Z M341.33119202 48.3742218 C341.4932954 49.27705808 341.65539879 50.17989435 341.8224144 51.1100893 C342.59739219 56.5864631 342.47580591 62.08013992 342.47163391 67.6003418 C342.47609059 69.44646229 342.47609059 69.44646229 342.48063731 71.32987815 C342.48779562 74.73418614 342.49049491 78.13844363 342.49123478 81.54275548 C342.49309146 85.21911198 342.50064183 88.89545766 342.50737 92.57180786 C342.52092845 100.60499922 342.52697404 108.63818558 342.53138065 116.67138648 C342.53414707 121.69094749 342.53838513 126.71050659 342.54288483 131.7300663 C342.55507384 145.63841855 342.56537414 159.54676928 342.56875992 173.45512676 C342.56897948 174.34458077 342.56919905 175.23403478 342.56942527 176.15044193 C342.56964355 177.04197401 342.56986183 177.93350609 342.57008672 178.8520543 C342.57053018 180.65851573 342.57097674 182.46497717 342.57142639 184.2714386 C342.57164782 185.16749802 342.57186925 186.06355745 342.57209739 186.98677019 C342.57604438 201.50206001 342.59349702 216.0172996 342.61678591 230.53257003 C342.64052457 245.44901527 342.6529629 260.36543532 342.65412784 275.28189975 C342.65504314 283.65137744 342.66075902 292.02078965 342.67894745 300.39024925 C342.69438234 307.51754843 342.69944893 314.64476188 342.69120935 321.7720746 C342.68731491 325.40497752 342.68817302 329.03770799 342.70226669 332.67058945 C342.71744059 336.61819427 342.70910348 340.56555922 342.69868469 344.51318359 C342.7107693 346.21618977 342.7107693 346.21618977 342.72309804 347.95360011 C342.61380036 365.72627267 335.84203324 381.70699506 323.33119202 394.3742218 C309.49470028 406.79561779 294.09774586 411.70349473 275.79968262 411.62145996 C274.56032095 411.62387438 273.32095929 411.62628879 272.04404122 411.62877637 C268.62506096 411.63341888 265.20630724 411.62914954 261.78734791 411.62101209 C258.09201834 411.61440713 254.39670153 411.61938963 250.70137024 411.62289429 C243.47083527 411.62792539 236.2403462 411.62230843 229.00981694 411.61304399 C220.58525349 411.6026392 212.16069986 411.60273073 203.7361312 411.60321657 C188.70278569 411.60371676 173.66946148 411.59456696 158.63612366 411.58003235 C144.05604158 411.5659433 129.47597826 411.55886173 114.89588928 411.55952454 C113.99771736 411.55956449 113.09954544 411.55960445 112.17415618 411.55964562 C111.27752051 411.55968597 110.38088484 411.55972632 109.4570784 411.5597679 C92.84618604 411.56045819 76.23530164 411.55456546 59.62441186 411.54561469 C53.75504423 411.5426016 47.88567806 411.54153551 42.01630974 411.54108238 C34.86224597 411.5403994 27.7081956 411.53592293 20.55413752 411.52674957 C16.90557414 411.52214093 13.25702786 411.51908264 9.60846138 411.52034378 C5.65086678 411.52164539 1.69330645 411.51517817 -2.26428223 411.50793457 C-3.98855551 411.51025747 -3.98855551 411.51025747 -5.7476626 411.5126273 C-11.48408835 411.49527322 -16.99583024 411.23912852 -22.66880798 410.3742218 C-18.88179631 415.29586343 -14.75821528 418.917937 -9.79380798 422.6242218 C-9.04494324 423.18778381 -8.29607849 423.75134583 -7.52452087 424.33198547 C10.20302457 437.56074286 28.67529207 450.89250771 51.5388031 450.75517273 C52.74337965 450.7598527 53.94795619 450.76453267 55.18903506 450.76935446 C58.51111 450.77920929 61.83267191 450.77571814 65.15471506 450.76639581 C68.74582031 450.75958408 72.33688203 450.77009713 75.92797852 450.77833557 C82.95499438 450.79165334 89.98191394 450.78880368 97.00893353 450.78009765 C102.72278219 450.77331272 108.43660394 450.77240788 114.15045547 450.7756691 C114.96479168 450.7761288 115.77912788 450.7765885 116.61814094 450.77706213 C118.2726591 450.77802134 119.92717725 450.77899398 121.58169539 450.7799799 C137.0854038 450.78852834 152.58905894 450.77870879 168.09275861 450.7625788 C181.38124748 450.74918117 194.6696577 450.75150019 207.95814514 450.76533508 C223.40461986 450.78140926 238.8510479 450.78769911 254.29752982 450.77849829 C255.94645221 450.77754269 257.59537462 450.77659958 259.24429703 450.7756691 C260.05550683 450.77520627 260.86671664 450.77474344 261.70250856 450.77426659 C267.40516765 450.77168184 273.10779702 450.77603669 278.81045151 450.78310776 C285.7664667 450.79154362 292.7223804 450.78919914 299.67838405 450.77326553 C303.22408265 450.76540998 306.76961237 450.76224438 310.31530952 450.77221298 C314.16683862 450.78287716 318.01809441 450.77009784 321.86961365 450.75517273 C323.53408777 450.76521098 323.53408777 450.76521098 325.23218763 450.77545202 C340.97093247 450.657508 354.50276812 445.00392233 365.85462952 434.0773468 C374.57683337 424.55721263 380.42866809 412.2460663 380.47099972 399.19655132 C380.47669096 398.16886157 380.4823822 397.14117181 380.4882459 396.08233994 C380.49001572 394.39881251 380.49001572 394.39881251 380.49182129 392.68127441 C380.49690911 391.4836434 380.50199693 390.28601238 380.50723892 389.05208951 C380.52022194 385.7308021 380.52871965 382.40955925 380.53521192 379.08825648 C380.54159373 376.23849948 380.55166238 373.38876033 380.56177258 370.53901448 C380.59506255 361.14992427 380.61661396 351.7608232 380.63497242 342.37169334 C380.63977054 339.92495434 380.6447535 337.47821577 380.64977765 335.03147721 C380.68075667 319.82195644 380.70742883 304.61243178 380.72419643 289.4028883 C380.72814564 285.88136984 380.73214867 282.35985145 380.73622131 278.83833313 C380.73773386 277.52552281 380.73773386 277.52552281 380.73927695 276.18619106 C380.75626379 262.02583829 380.79735186 247.8656609 380.8482443 233.70539363 C380.90012201 219.15059893 380.92915218 204.59589417 380.93639332 190.04100782 C380.94104325 181.8758368 380.95566421 173.71095277 380.99613762 165.54587364 C381.03058586 158.58802608 381.04431765 151.63051734 381.03171348 144.67258944 C381.02592053 141.12810622 381.02950852 137.58433815 381.05988312 134.03996468 C381.17923203 119.34098209 381.13090212 106.67277877 374.33119202 93.3742218 C373.93584479 92.5348215 373.54049757 91.6954212 373.13317013 90.83058453 C372.23579664 88.95252967 371.25940677 87.16876714 370.20619202 85.3742218 C369.83349182 84.72670959 369.46079163 84.07919739 369.07679749 83.4120636 C361.63690205 70.83697354 352.1692617 59.15364524 342.33119202 48.3742218 C342.00119202 48.3742218 341.67119202 48.3742218 341.33119202 48.3742218 Z M69.33119202 113.3742218 C63.2113071 121.07309895 58.54724982 129.02458541 55.33119202 138.3742218 C55.0978717 139.04582336 54.86455139 139.71742493 54.62416077 140.40937805 C49.8375506 156.62875496 52.10302348 176.25744292 59.33119202 191.3742218 C67.42332688 205.08491318 79.31853584 214.38823847 94.69447327 218.6632843 C105.18531644 221.31797937 115.41129742 222.49759516 126.22962952 222.55000305 C128.10984911 222.57319636 129.99005749 222.5973135 131.87025452 222.62226868 C134.78830076 222.65731072 137.70592989 222.6867206 140.62416077 222.70014954 C165.47325109 222.83638358 165.47325109 222.83638358 174.33119202 230.6242218 C180.47070597 237.632396 180.89880055 244.57615458 180.67103577 253.7414093 C180.12009259 259.6308019 178.77257819 263.87772533 174.60072327 268.14375305 C164.90979772 276.09379377 153.05546818 276.49413967 141.04774475 276.57954407 C140.16860916 276.58944366 139.28947357 276.59934326 138.38369751 276.60954285 C135.51075325 276.64084315 132.63779252 276.66578925 129.76478577 276.69062805 C127.75982257 276.71122484 125.75486345 276.73222198 123.74990845 276.75360107 C118.49751608 276.80854051 113.24508638 276.85807271 107.99263 276.90644836 C101.67734992 276.96575014 95.36213742 277.03182188 89.04691315 277.09674835 C79.47504771 277.19440344 69.903137 277.28350161 60.33119202 277.3742218 C60.33119202 290.5742218 60.33119202 303.7742218 60.33119202 317.3742218 C74.18811819 317.44217695 88.04493248 317.49714131 101.90198803 317.52965832 C108.33735567 317.54527001 114.77260273 317.56642592 121.207901 317.60054016 C127.42598966 317.63329419 133.64396281 317.65110858 139.86213112 317.65885353 C142.22661976 317.66436832 144.59110255 317.67513689 146.95554161 317.69141197 C167.68804159 317.82835833 185.35235855 316.62337305 201.1676178 301.68476868 C214.9301037 288.08247134 221.34752623 270.03481666 221.58119202 250.8742218 C221.56949547 230.81932675 214.83445554 212.41772719 201.20619202 197.6242218 C187.130787 184.29853767 169.37767935 180.27127722 150.55384827 180.19844055 C148.2432922 180.17525032 145.93274528 180.15113331 143.62220764 180.12617493 C140.00373616 180.09104891 136.38560447 180.06169186 132.76698303 180.04829407 C129.25802824 180.03278356 125.75004488 179.9925677 122.24134827 179.94844055 C121.16716141 179.95034897 120.09297455 179.95225739 118.98623657 179.95422363 C112.66683072 179.85184141 107.53803786 179.18244325 102.33119202 175.3742218 C97.05794647 168.88407344 96.55298097 162.51724177 97.33119202 154.3742218 C98.58352776 149.63608531 100.80564749 146.381436 104.76869202 143.4992218 C115.50047022 137.84844054 129.27566493 139.03995891 141.10072327 138.9601593 C142.87577167 138.94140663 144.65081155 138.92183032 146.42584229 138.901474 C151.0534406 138.85057917 155.68106768 138.81072786 160.30879211 138.77333069 C165.88499929 138.72590886 171.46106854 138.6644973 177.03716278 138.60548401 C185.46844886 138.51779305 193.89971553 138.44765662 202.33119202 138.3742218 C202.33119202 124.5142218 202.33119202 110.6542218 202.33119202 96.3742218 C189.38695772 96.28358323 176.4429368 96.21031138 163.498456 96.16697311 C157.48677013 96.1461651 151.47531404 96.1179719 145.46376038 96.07246399 C139.6541438 96.02876373 133.84474722 96.00503375 128.03497887 95.99471283 C125.82677438 95.9873647 123.61858091 95.97301636 121.41047096 95.95130157 C101.9012458 95.76720642 83.3097519 98.03932641 69.33119202 113.3742218 Z " fill="#000000" transform="translate(94.66880798339844,24.625778198242188)"/>
</svg>
